<svg width="170" height="91" viewBox="0 0 170 91" fill="none" xmlns="http://www.w3.org/2000/svg">
<g clip-path="url(#clip0_266_1412)">
<path d="M18.0467 0.996979C18.2272 0.906251 18.4076 0.906251 18.3174 0.634067C18.3174 0.361884 17.776 0.543339 17.8662 0.724795C17.8662 0.906251 17.9565 1.08771 18.0467 0.996979Z" fill="#F09CAF"/>
<path d="M54.3206 86.6441C54.0499 86.3719 54.3206 86.0997 54.3206 85.9183C54.3206 85.8275 54.2304 85.8275 54.0499 85.8275C53.8694 85.6461 53.5085 85.5554 53.4183 85.1925C54.3206 84.3759 51.7941 83.5593 53.4183 82.8335C53.0573 82.2892 53.0573 83.3779 52.5159 83.1057C52.3355 83.015 52.5159 82.7428 52.4257 82.5613C52.6062 82.4706 53.5987 81.9262 52.7866 82.1984C51.5234 81.9262 52.2452 81.019 51.8843 80.2024C51.7038 80.3839 51.4331 80.3839 51.2527 80.4746C50.8917 80.2024 50.8917 79.8395 51.0722 79.4766C50.8015 78.9322 50.1699 79.023 49.8089 78.9322C49.7187 78.7508 49.9894 78.7508 50.0796 78.5693C49.9894 78.5693 49.9894 78.4786 49.9894 78.2971C49.9894 77.8435 50.2601 77.1177 49.2675 77.7528C48.4554 77.2084 49.1773 76.664 49.0871 76.1197C48.275 74.668 47.3726 73.4886 46.741 71.8555C45.7484 72.0369 46.0191 71.4018 46.1093 70.8575C46.1996 70.4945 46.1996 70.2224 45.8386 70.0409C45.4777 70.0409 44.9363 70.4945 44.8461 69.8594C44.3047 69.4058 45.0265 69.1336 45.207 68.68C44.2144 68.3171 44.7558 66.8654 43.7633 66.5932C44.6656 65.5045 42.5 65.8674 43.0414 64.7787C42.0488 64.9601 42.8609 63.5992 42.2293 63.1456C41.8684 62.4198 41.2367 63.0549 40.8758 62.2383C40.7856 61.9661 41.0563 61.8754 41.2367 61.6939C41.4172 61.6939 41.5977 61.8754 41.5977 62.1476C41.5074 61.6939 41.1465 61.1496 40.966 60.6959C40.966 60.6052 41.1465 60.4238 41.327 60.333C41.1465 60.333 41.0563 60.1516 40.966 59.9701C41.2367 59.0628 39.793 58.1556 39.793 57.1576C39.3418 56.9761 39.0711 56.4317 38.8907 55.9781C38.8004 55.7966 38.8004 55.7059 38.8004 55.6152C38.62 55.7059 38.5297 55.7966 38.5297 55.9781C38.5297 56.0688 38.5297 56.1595 38.5297 56.341C38.3493 56.4317 38.1688 56.7039 37.9883 56.5225C37.7176 56.341 37.5372 56.1595 37.4469 55.8874C37.3567 55.7059 37.3567 55.4337 37.3567 55.2523C37.8079 54.2543 38.5297 55.6152 38.5297 54.7986C38.9809 53.9821 37.6274 53.6192 38.1688 52.8933C37.4469 52.1675 37.2665 51.2602 36.8153 50.1715C37.086 49.1735 35.8227 48.6291 36.1837 47.6311C36.1837 46.996 34.6497 47.0868 35.2813 46.1795C36.3641 46.7239 35.4618 45.8166 35.552 45.4537C33.9278 45.1815 34.9204 43.6391 34.2887 42.8226C34.0181 42.6411 34.2887 42.3689 34.379 42.0967C34.2887 41.2802 33.4766 42.006 33.3864 41.3709C33.5669 41.2802 33.7473 40.9173 34.0181 41.008C33.8376 40.8265 35.2813 40.3729 34.1985 40.3729C33.9278 39.7378 34.0181 39.7378 33.5669 39.3749C33.5669 39.012 33.6571 38.8305 33.9278 38.7398C34.1985 38.7398 34.1985 38.9213 34.379 39.1027C34.379 38.3769 35.2813 38.7398 35.3716 38.014C35.1009 37.4696 34.8302 38.3769 34.379 38.1047C34.1985 37.9233 34.379 38.6491 33.8376 38.7398C33.5669 38.7398 33.4766 38.4676 33.3864 38.2862C33.2962 38.1047 33.3864 38.014 33.4766 38.014C32.7548 38.1047 32.845 37.2882 33.0255 36.9252C32.9352 37.016 32.845 36.6531 32.7548 36.5623C34.2887 34.6571 34.1083 38.6491 35.4618 36.7438C34.6497 36.6531 34.379 35.8365 33.7473 35.7458C34.4692 35.1107 32.6645 34.4756 33.7473 33.9312C34.8302 34.4756 34.5594 35.5643 35.4618 35.7458C35.1911 35.5643 35.552 35.4736 35.7325 35.2921C35.6423 35.2921 35.3716 34.8385 35.1009 35.1107C34.379 34.6571 35.552 34.6571 35.2813 34.022C35.1911 33.2054 34.4692 34.2941 34.2887 33.4776C33.4766 33.8405 32.7548 32.9332 31.9427 33.2961C31.8524 33.1147 31.8524 33.0239 31.7622 32.9332C31.7622 32.661 31.8524 32.3889 32.1231 32.2981C32.3036 32.2981 32.4841 32.3889 32.5743 32.5703C33.1157 31.8445 33.9278 33.0239 34.4692 32.5703C34.5595 32.4796 34.6497 32.2981 34.7399 31.9352C35.1009 33.2961 36.0934 31.2094 36.4544 32.661C37.086 32.5703 36.3641 32.1167 36.9055 31.8445C36.2739 31.5723 35.913 31.1187 35.1911 31.5723C34.5595 30.665 35.913 30.8465 36.0934 30.2114C36.5446 30.5743 36.9055 30.9372 36.8153 30.0299C36.6348 30.1207 36.5446 30.3928 36.3641 30.3021C36.2739 30.1207 35.913 29.9392 36.0032 29.667C36.1837 29.4856 37.086 29.1227 36.3641 29.2134C36.1837 29.0319 36.3641 28.8505 36.2739 28.5783C36.9055 27.7617 35.6423 28.3061 35.4618 27.671C35.4618 27.3988 35.6423 27.3081 35.8227 27.1266C37.4469 26.4008 36.6348 28.3968 37.3567 28.669C37.5372 28.1246 37.2665 27.7617 37.086 27.3081C37.4469 26.7637 37.8079 27.0359 37.9883 27.3081C37.6274 26.4008 39.2516 25.2214 37.4469 24.7677C37.2665 24.677 37.3567 24.3141 37.5372 24.2234C37.5372 24.1326 37.6274 24.0419 37.7176 23.9512C37.9883 23.679 38.62 23.5883 37.8079 23.4975C37.5372 23.4975 37.5372 23.2253 37.6274 23.0439C36.1837 22.681 37.8079 21.683 37.6274 21.3201C37.5372 20.8664 36.9958 20.4128 37.2665 19.9591C37.086 19.324 36.9055 18.689 36.5446 18.5982C35.8227 18.4168 36.0934 17.6002 36.5446 17.4188C35.552 16.33 36.3641 15.6949 35.3716 14.6969C34.5595 14.6062 35.2813 13.2453 34.9204 13.0638C35.0106 12.1566 33.7473 11.4307 33.8376 10.7956C33.4766 10.0698 33.5669 9.34399 32.7548 8.89035C30.8599 5.26124 27.8822 2.35795 24.9045 1.90431C24.8142 1.81358 24.724 1.81358 24.6338 1.81358L24.5435 1.72285C24.5435 1.5414 24.4533 1.63212 24.4533 1.81358C24.3631 1.81358 24.2728 1.81358 24.1826 1.81358C24.0021 1.45067 24.1826 1.26921 24.3631 0.906301C24.0924 0.906301 23.7314 1.5414 23.3705 0.724845C23.4607 0.724845 23.4607 0.724845 23.551 0.543389C23.19 0.452662 22.7389 0.452662 22.6486 0.815573C23.3705 1.08776 22.9193 1.5414 22.9193 1.99503C22.8291 1.99503 22.7389 1.99503 22.6486 2.08576V2.44867C22.4682 1.81358 22.5584 1.5414 22.1975 1.99503C22.1975 2.08576 22.1072 2.08576 22.1072 2.08576C22.017 1.99503 21.9268 1.99503 21.9268 1.90431C21.8365 1.81358 21.6561 1.5414 21.5658 1.45067C21.5658 1.35994 21.5658 1.35994 21.5658 1.26921C21.8365 1.08776 21.8365 1.72285 21.9268 1.45067C22.6486 2.17649 22.3779 0.361934 22.017 1.17848C21.8365 0.997029 21.8365 0.815573 21.9268 0.634117C22.9193 -0.273161 21.7463 0.271206 21.5658 0.815573C21.2951 0.724845 21.5658 1.08776 21.3854 1.26921L21.2049 1.35994H21.1147C20.9342 0.724845 20.483 1.5414 20.2123 0.997029C20.3928 0.452662 20.2123 0.361934 19.8514 -0.0917053C19.8514 -0.000977494 19.8514 0.180478 19.7611 0.180478C19.1295 -0.0917053 19.0393 0.452662 18.8588 0.815573C18.7686 0.452662 18.4979 0.543389 18.2272 0.815573C18.1369 1.90431 18.949 0.997028 19.2197 1.90431C19.8514 1.72285 19.1295 1.45067 19.1295 1.17848C18.949 0.997029 19.1295 0.543389 19.4002 0.452662C19.7611 1.35994 19.7611 0.180478 20.0318 0.724845C20.0318 0.815573 19.9416 0.997029 19.9416 1.08776C19.9416 1.08776 19.6709 1.17848 19.6709 1.35994C19.6709 1.5414 19.5807 1.81358 19.6709 1.90431C19.6709 1.90431 19.6709 1.99503 19.7611 1.99503C19.9416 2.17649 20.3025 1.99503 20.3928 1.90431C20.483 1.81358 20.483 1.72285 20.5732 1.5414C20.5732 1.5414 20.5732 1.63212 20.6635 1.63212C20.5732 1.81358 20.483 2.08576 20.483 2.08576L20.3928 2.26722C20.0318 2.5394 19.6709 3.26522 19.4002 2.35795C18.949 2.81158 18.5881 2.35795 18.3174 1.90431C18.4076 2.17649 17.9565 2.44867 18.3174 2.81158C18.1369 2.99304 17.8662 2.90231 17.6858 2.99304C18.1369 3.26522 17.8662 4.1725 18.4076 3.90032C18.4076 3.99105 18.4979 3.99105 18.4979 4.08177C18.5881 3.99105 18.7686 3.90032 18.7686 3.80959C18.949 4.08177 19.1295 4.26323 19.0393 4.53541C18.7686 4.53541 18.6783 4.98905 18.3174 4.8076C18.2272 4.71687 18.2272 4.71687 18.2272 4.62614C18.1369 4.8076 18.0467 4.98905 17.9565 5.07978C18.1369 5.35196 17.9565 5.8056 17.8662 6.07779C17.776 6.07779 17.6858 6.07779 17.5955 6.07779C17.4151 6.53143 17.2346 7.07579 17.2346 7.25725C17.2346 7.34798 17.3248 7.52943 17.4151 7.80162C17.1444 8.43671 16.6932 9.07181 16.8737 9.16253C17.2346 9.16253 16.9639 10.4327 17.1444 11.2493C16.9639 11.6122 16.6932 11.34 16.9639 11.6122C17.2346 11.6122 16.603 12.7009 16.9639 13.2453C16.7834 13.5175 16.603 13.0638 16.4225 12.8824C16.1518 12.7916 16.7834 13.1546 16.5127 13.4267C15.9713 14.0618 16.7834 13.2453 16.8737 13.6989C17.1444 13.8804 17.5955 14.334 17.4151 14.6969C17.2346 14.8784 16.9639 14.9691 16.6932 14.8784C16.603 15.7857 17.0541 15.332 17.5053 15.9671C17.5053 16.33 17.9565 16.8744 17.3248 16.8744C17.5053 16.9651 17.6858 16.8744 17.8662 17.1466C17.9565 17.4188 17.8662 17.6002 17.6858 17.6909C17.4151 17.8724 17.0541 17.9631 17.1444 18.0539C16.6932 18.5982 17.4151 18.8704 17.776 19.1426C17.5955 20.1406 20.0318 21.5922 17.776 21.9552C18.0467 22.4088 18.1369 22.4995 18.4076 22.9532C18.2272 23.9512 18.7686 24.4048 18.5881 25.4028C18.8588 25.9472 18.949 26.5823 19.1295 27.1266C19.4002 28.4876 19.4904 29.8485 20.2123 30.8465C20.2123 31.0279 20.6635 31.0279 20.6635 31.2094C20.7537 31.4816 20.9342 31.663 21.0244 31.9352C21.0244 32.0259 21.1147 32.0259 21.1147 32.1167C21.2049 32.5703 21.3854 33.0239 21.6561 33.4776C21.6561 33.659 21.6561 33.9312 21.7463 34.1127V34.2034C21.7463 34.4756 21.6561 34.7478 21.2951 35.02C21.6561 35.4736 21.2049 35.8365 20.9342 36.1994C20.5732 37.1974 20.9342 37.9233 20.1221 38.7398C19.7611 39.7378 20.7537 38.6491 20.844 39.3749C21.2049 39.7378 20.6635 40.01 20.483 40.1914C20.3025 40.1914 20.2123 39.9193 20.0318 39.7378C19.8514 40.01 18.949 40.7358 19.4002 41.2802C20.6635 42.0967 18.2272 41.1895 18.7686 42.7318C17.5955 43.0947 19.0393 44.3649 17.4151 44.5464C17.3248 45 17.3248 45.3629 17.4151 45.6351C16.8737 46.3609 16.603 46.9053 16.8737 47.7219C16.603 47.8126 15.9713 48.3569 16.4225 48.3569C16.5127 48.5384 16.242 48.992 15.8811 48.992C15.7006 49.8086 15.069 50.4437 14.9788 51.351C14.8885 51.5324 14.7983 51.7139 14.7081 51.8953C14.2569 52.9841 13.8057 53.8006 13.2643 54.7986C13.4448 56.0688 11.8206 56.341 12.0011 57.7019C10.7378 58.0648 11.6401 59.5165 10.5573 60.0608C10.4671 61.5125 9.47452 62.5105 9.11359 63.9621C9.11359 64.1436 9.20382 64.5065 9.20382 64.7787C9.29406 65.3231 9.29406 65.7767 8.39172 65.3231C8.39172 65.5045 8.39172 65.686 8.21125 65.686C7.76009 66.7747 7.12845 67.4098 7.30892 68.4078C6.31635 68.7707 6.76752 69.7687 6.31635 70.3131C6.31635 70.4038 6.22612 70.7667 6.13588 71.0389C5.86518 71.8555 5.59448 72.8535 6.67728 72.1276C5.50425 72.8535 6.22612 73.0349 5.23355 73.9422C5.50425 73.9422 5.50425 74.1237 5.68471 74.3051C5.77495 75.4846 4.42144 75.0309 4.42144 75.5753C4.15074 76.0289 4.69214 76.2104 4.87261 75.9382C4.96285 76.1197 5.32378 76.3011 5.23355 76.5733C4.96285 76.7548 4.60191 77.1177 4.33121 76.664C3.88004 76.8455 3.78981 77.1177 3.69958 77.4806C3.69958 77.662 3.69958 77.8435 3.69958 78.0249C3.42887 79.9302 1.8949 81.2004 2.43631 82.5613C2.43631 82.8335 2.25584 83.015 2.07537 83.1057C2.16561 83.1057 2.34607 83.1964 2.43631 83.1964C2.97771 83.2872 2.61677 83.7408 2.61677 84.013C2.25584 84.3759 1.98514 84.2852 1.80467 83.8315C1.6242 83.7408 1.71444 84.013 1.71444 84.1037C1.53397 84.4666 1.3535 84.5574 0.902336 84.6481C0.631635 85.2832 0.902336 85.7368 1.3535 86.0997C0.992569 86.4626 1.80467 87.2792 0.812102 87.4606C0.270701 87.0977 0.451168 88.005 0 88.1865C0 88.4586 0.631635 89.3659 0.631635 88.8216C0.812102 88.7308 0.992569 88.3679 1.26327 88.4586C1.6242 88.8216 1.6242 89.1845 1.44374 89.5474C3.42887 88.9123 0.270701 88.7308 1.80467 88.005C3.33864 88.2772 1.98514 90.7268 3.60934 90.0918C3.51911 89.9103 3.24841 89.7288 3.42887 89.4567C3.69958 89.3659 3.78981 89.0938 4.15074 89.1845C4.60191 90.1825 4.87261 88.6401 5.50425 88.8216C5.59448 89.003 5.77495 89.1845 6.04565 89.2752C4.96285 88.4586 7.03822 87.5514 6.49682 86.5534C6.85775 86.5534 7.12845 85.9183 7.57962 86.1905C8.21125 86.9163 6.58705 87.3699 7.03822 87.6421C8.12102 87.4606 8.21125 86.2812 9.11359 86.1905C9.47452 86.6441 10.1062 86.0997 10.1964 86.1905C10.3769 85.8275 9.74522 84.8295 10.1062 84.2852C10.0159 84.4666 9.47452 84.4666 9.74522 84.8295C9.74522 85.1017 9.56476 85.1017 9.38429 85.2832C8.93312 84.7388 8.30149 85.9183 7.85032 85.5554C7.48938 85.3739 6.94798 85.5554 6.85775 85.1017C7.03822 84.4666 7.57962 84.8295 7.76009 85.011C7.66985 83.9223 9.29406 84.6481 8.84289 84.1037C6.76752 84.2852 9.92569 82.7428 7.94055 82.7428C7.94055 82.4706 8.12102 82.3799 8.30149 82.2892C8.75265 81.5633 9.20382 82.2892 9.29406 82.7428C9.38429 82.6521 9.38429 82.5613 9.38429 82.4706C9.29406 81.6541 8.30149 82.1984 8.12102 81.5633C8.12102 81.2912 8.21125 81.1097 8.57219 81.019C9.38429 81.6541 8.21125 79.7488 9.56476 80.5653C9.65499 80.7468 9.83546 80.8375 9.74522 81.1097C9.02336 81.6541 9.56476 81.8355 10.0159 81.3819C10.3769 82.1077 10.828 80.8375 11.0085 81.8355C11.0085 81.9262 10.9183 82.017 10.9183 82.017C11.0987 82.1077 11.4597 82.5613 11.3694 81.8355C11.7304 81.5633 12.0011 81.2004 12.4522 81.2912C12.6327 81.2004 13.1741 80.3839 12.5425 80.5653C13.1741 79.5673 11.6401 79.2951 11.0085 79.023C11.0987 78.66 11.2792 78.5693 11.4597 78.5693C11.9108 78.4786 12.362 78.8415 12.8132 78.66C12.9034 78.66 12.9936 78.7508 12.9936 78.8415C13.0839 79.1137 12.9034 79.3859 13.2643 79.2951C13.2643 79.2044 13.2643 79.023 13.2643 78.9322C13.2643 78.2971 13.1741 77.662 13.4448 76.9362C13.9862 76.2104 14.2569 77.5713 14.5276 77.1177C14.4374 76.8455 14.4374 76.3919 13.896 76.4826C13.6253 76.4826 13.0839 76.3918 13.4448 76.7548C13.4448 77.0269 13.2643 77.1177 13.0839 77.2084C11.2792 77.4806 13.6253 76.2104 13.1741 75.5753C13.535 75.0309 13.896 75.666 13.896 75.5753C14.8885 74.9402 14.5276 76.5733 15.1592 76.7548C15.1592 76.4826 14.7081 76.1197 15.1592 75.9382C16.3323 76.3011 15.9713 75.2124 15.5202 74.7588C15.7909 75.1217 15.6104 75.4846 15.1592 75.7568C14.5276 75.1217 13.9862 74.2144 14.1667 73.3071C15.069 73.3071 15.2495 73.8515 15.6104 74.3051C15.5202 73.67 15.7909 73.1256 16.1518 72.672C16.4225 72.2184 16.6932 71.8555 16.7834 71.5833C16.603 72.672 17.776 71.9462 18.0467 72.8535C17.9565 72.672 17.776 72.3091 17.5053 72.0369C17.5955 70.5853 18.4979 72.3998 18.4076 71.8555C17.776 71.3111 18.7686 70.8575 18.4076 70.4038C17.9565 70.676 17.2346 70.9482 17.1444 70.9482C17.2346 71.2204 16.9639 71.3111 16.7834 71.4925C15.9713 70.4945 15.7909 72.3998 15.069 71.674C14.8885 71.3111 15.5202 70.5853 15.7909 70.9482C16.1518 69.4058 17.5053 70.8575 17.9565 69.678C18.5881 70.676 19.31 69.2243 20.0318 69.678C19.7611 69.2243 20.3928 68.5893 20.2123 68.2263C19.9416 68.1356 20.1221 67.3191 19.4904 67.5005C19.2197 67.5005 19.0393 67.2283 19.2197 66.9562C19.4904 66.8654 19.5807 66.684 19.7611 66.5025C19.9416 66.2303 20.0318 66.0489 20.483 66.2303C20.5732 66.4118 20.6635 66.5025 20.844 66.684C21.1147 67.0469 21.3854 67.5005 21.1147 67.8634C21.2049 67.8634 21.4756 68.0449 21.3854 67.8634C21.6561 67.4098 21.9268 67.7727 22.1072 67.682C22.017 67.5005 21.7463 67.3191 21.9268 67.1376C22.017 67.0469 22.017 67.0469 22.1072 67.0469C22.2877 66.9562 22.3779 66.9562 22.5584 66.8654C22.017 66.3211 21.3854 65.0509 21.4756 63.7807C20.483 62.8734 20.6635 65.1416 19.4904 64.5972C19.0393 64.325 18.6783 63.7807 18.949 63.327C19.0393 63.2363 19.31 62.7827 19.4002 63.2363C19.7611 63.6899 20.2123 63.2363 20.5732 62.9641C21.2049 63.4178 21.1147 62.5105 20.3928 62.8734C19.9416 62.1476 18.949 63.2363 18.5881 62.6012C18.5881 62.329 18.4979 62.1476 18.7686 62.0569C19.1295 61.8754 20.3025 62.1476 19.7611 61.5125C19.1295 61.1496 18.5881 60.8774 17.9565 61.4218C17.776 61.331 17.9565 61.0588 17.8662 60.8774C18.6783 61.0588 19.31 59.2443 19.9416 60.5145C20.1221 61.6032 21.2049 60.9681 22.017 61.1496C22.017 60.8774 23.19 60.0608 22.1975 60.4238C22.1072 60.2423 21.8365 60.0608 22.017 59.8794C22.3779 59.335 23.0096 59.1536 23.6412 59.2443C24.4533 59.335 24.3631 60.1516 24.4533 60.6052C24.3631 59.8794 25.1752 59.6072 25.4459 59.0628C24.8142 59.4257 24.9947 58.7906 24.6338 58.5185C24.6338 58.7906 24.4533 58.8814 24.2728 58.9721C23.8217 57.9741 23.2803 59.4257 22.9193 58.2463C21.8365 57.9741 22.017 59.335 21.2951 59.6072C21.6561 59.7887 21.8365 59.335 21.9268 59.8794C21.9268 60.1516 21.8365 60.333 21.4756 60.5145C21.2049 60.5145 21.0244 60.333 20.844 60.2423C21.0244 58.8814 20.3025 60.2423 19.6709 59.6072C19.6709 59.335 19.9416 59.335 20.1221 59.1536C21.1147 59.1536 20.7537 57.4297 21.5658 56.8854C22.017 56.8854 22.1072 57.5205 22.4682 57.7019C22.4682 55.7966 24.0924 57.6112 24.6338 56.2503C23.8217 55.7059 24.1826 56.8854 23.2803 56.7039C22.9193 56.4317 23.3705 56.4317 23.2803 56.0688C23.2803 55.6152 22.8291 55.5244 22.7389 55.9781C22.4682 55.5244 22.1975 55.1615 22.1072 54.7079C22.2877 54.6172 22.4682 54.345 22.6486 54.5264C23.0998 53.7099 23.8217 55.1615 24.6338 54.7079C24.9947 55.0708 24.9045 55.2523 24.6338 55.6152C25.8068 55.5244 26.7091 55.7966 27.431 56.4317C27.2505 57.8834 27.5212 56.1595 27.7919 55.7966C28.2431 55.9781 28.6943 55.7059 28.965 56.341C28.5138 57.2483 29.8673 58.337 30.3185 58.7907C29.7771 59.335 31.0403 58.8814 31.311 59.5165C31.2208 59.8794 30.5892 60.333 30.4989 60.0608C30.5892 60.2423 30.6794 60.2423 30.8599 60.2423C30.5892 61.2403 32.2134 61.5125 31.7622 62.4198C31.9427 63.2363 31.8524 62.9641 32.3938 63.6899C32.5743 63.8714 32.7548 63.5992 32.9352 63.6899C33.3864 64.0529 32.9352 64.5065 33.2962 64.8694C32.4841 65.8674 34.7399 66.4118 33.8376 66.9562C34.4692 67.5005 34.5595 68.4078 34.9204 69.2243C35.1009 69.7687 35.4618 70.2224 36.0032 70.4945C37.3567 70.1316 36.7251 72.0369 37.086 72.3998C37.3567 72.3998 37.7176 73.1256 37.8079 72.4906C38.0786 71.674 38.8907 72.1276 39.1614 72.672C39.1614 73.0349 38.7102 73.2164 38.3493 73.4886C39.2516 74.668 39.7028 75.9382 40.6953 76.8455C40.8758 77.0269 41.1465 77.2991 41.327 77.4806C42.2293 77.1177 41.7781 78.7508 42.7707 78.5693C41.9586 79.9302 43.5828 79.2044 44.034 79.3859C44.1242 80.3839 44.5754 79.3859 45.1168 79.7488C45.207 79.8395 45.207 79.9302 45.207 80.021C45.0265 80.4746 44.6656 80.5653 44.2144 80.5653C43.673 81.6541 44.9363 81.7448 45.2972 82.9243C46.0191 82.6521 46.4703 82.1077 46.9214 82.1984C47.0117 82.3799 46.8312 82.3799 46.741 82.4706C46.5605 83.2872 46.1093 82.9243 45.9289 83.7408C46.2898 84.1037 46.741 84.4666 47.3726 84.1944C47.8238 84.5574 47.6433 84.7388 47.3726 84.9203C47.1019 85.1017 46.8312 85.2832 47.2824 85.6461C48.1847 85.1017 47.4628 86.8255 48.275 86.1905C48.5457 87.007 49.5382 87.8236 49.8089 88.8216C50.621 89.3659 51.4331 91.2712 52.5159 91.2712C51.7941 90.6361 52.6964 89.4567 52.3355 89.003C51.3429 89.6381 50.8015 88.5494 49.9894 88.6401C49.9894 88.2772 50.0796 88.0957 50.3503 88.005C50.621 88.005 50.7113 88.3679 50.8015 88.4586C51.4331 88.3679 51.0722 87.8236 51.6136 87.6421C52.155 88.3679 52.6964 86.7348 53.328 87.3699C53.5987 85.9183 54.4108 88.005 54.3206 86.6441ZM37.7176 25.4935C37.8981 26.0379 37.2665 26.0379 37.086 26.4008C37.2665 26.1286 36.7251 24.8584 37.7176 25.4935ZM35.1009 28.1246C35.2813 28.2154 35.6423 28.1246 35.4618 28.4876C35.2813 28.7597 34.9204 28.3968 35.1009 28.1246ZM35.2813 29.0319C35.3716 29.2134 35.4618 29.2134 35.6423 29.2134C35.6423 29.667 35.4618 29.8485 35.0106 29.667C34.9204 29.4856 34.8302 28.9412 35.2813 29.0319ZM20.5732 1.63212C20.483 1.81358 20.3025 1.90431 20.3025 1.90431C20.3025 1.90431 20.3025 1.90431 20.2123 1.90431L20.3025 1.63212L20.1221 1.45067C20.2123 1.45067 20.3025 1.45067 20.5732 1.35994C20.483 1.45067 20.483 1.5414 20.5732 1.63212ZM20.7537 22.1366C20.3928 21.9552 19.1295 22.5903 19.7611 21.7737C20.2123 21.8644 20.483 21.8644 20.7537 22.1366ZM20.3928 24.4048C20.0318 25.3121 19.7611 25.4028 19.8514 24.4955C19.9416 24.3141 20.3025 24.1326 20.3928 24.4048ZM19.31 19.324C19.2197 19.1426 19.1295 18.689 19.5807 18.689C19.7611 18.5982 19.7611 18.8704 19.9416 18.9611C19.6709 19.1426 19.5807 19.5962 19.31 19.324ZM19.6709 21.1386C19.5807 21.3201 19.6709 21.5015 19.4002 21.683C19.2197 21.683 19.1295 21.5922 19.0393 21.5015C18.949 21.0479 19.4904 20.5942 19.6709 21.1386ZM20.3025 19.7777C20.3025 20.0499 20.1221 20.0499 20.0318 20.1406C19.6709 20.0499 20.0318 19.324 20.3025 19.7777ZM20.844 2.99304C20.9342 3.08377 20.9342 3.26522 20.9342 3.35595C20.7537 3.35595 20.6635 3.62814 20.5732 3.53741C20.3025 3.44668 20.483 2.90231 20.844 2.99304ZM19.1295 8.98108C19.2197 9.43472 18.949 9.16253 18.6783 9.16253C18.5881 8.89035 19.1295 8.52744 19.1295 8.98108ZM18.4979 12.8824C18.2272 12.8824 18.1369 13.336 17.776 13.1546C17.4151 12.7009 18.1369 12.6102 18.3174 12.2473C18.4076 12.5195 18.5881 12.7009 18.4979 12.8824ZM18.6783 6.71288C18.4979 6.89434 18.3174 6.71288 18.1369 6.80361C18.0467 6.4407 18.949 6.25924 18.6783 6.71288ZM17.776 9.97908C18.0467 9.88836 18.1369 10.1605 18.3174 10.342C18.3174 10.6142 18.1369 10.6142 18.0467 10.7049C17.8662 10.5235 17.4151 10.1605 17.776 9.97908ZM17.6858 19.0519C17.5955 18.8704 17.0541 18.5075 17.5053 18.4168C17.776 18.326 17.8662 18.5982 18.0467 18.7797C17.9565 18.9611 17.776 18.9611 17.6858 19.0519ZM18.3174 15.0598C18.1369 15.2413 17.9565 15.0598 17.776 15.1506C17.6858 14.8784 18.4979 14.6062 18.3174 15.0598ZM18.4076 19.0519C18.0467 19.4148 18.2272 18.8704 18.4076 18.689C18.6783 18.689 18.4979 18.9611 18.4076 19.0519ZM18.3174 17.5095C18.2272 17.2373 18.7686 16.9651 18.7686 17.328C18.7686 17.6909 18.4979 17.5095 18.3174 17.5095ZM18.7686 14.4247C18.6783 14.334 18.4979 14.334 18.4076 14.2433C18.0467 14.2433 17.8662 14.6062 17.5053 14.4247C17.2346 14.2433 17.5955 14.0618 17.776 13.8804C18.0467 13.8804 18.2272 14.0618 18.4076 14.2433C18.6783 14.2433 18.7686 14.334 18.7686 14.4247C18.949 14.5155 19.1295 14.5155 19.31 14.334C19.5807 14.6969 19.2197 15.1506 18.949 15.1506C18.1369 15.2413 18.8588 14.7877 18.7686 14.4247ZM18.8588 18.1446C18.949 17.8724 19.4002 17.6909 19.5807 18.0539C19.6709 18.5075 19.1295 18.0539 18.8588 18.1446ZM18.7686 22.1366C18.6783 22.681 18.7686 23.2253 19.4002 22.4995C19.8514 22.4995 19.8514 23.0439 19.9416 23.3161C19.6709 23.4975 19.5807 23.9512 19.31 23.9512C19.31 22.7717 17.5955 22.9532 18.7686 22.1366ZM19.4002 26.4008C19.1295 26.2194 19.2197 25.7657 19.4904 25.675C19.7611 25.675 19.6709 25.8565 19.8514 26.0379C19.9416 26.4915 19.5807 26.3101 19.4002 26.4008ZM20.0318 27.7617C19.7611 27.7617 19.7611 27.5803 19.7611 27.3988C19.8514 27.2174 20.0318 27.2174 20.1221 27.4896C20.2123 27.671 20.0318 27.7617 20.0318 27.7617ZM20.5732 30.3021C20.2123 30.1207 19.9416 29.5763 20.2123 29.3041C20.3928 29.3948 20.7537 29.4856 20.844 29.8485C20.6635 29.9392 20.844 30.2114 20.5732 30.3021ZM22.1975 3.62814C22.017 3.71886 21.5658 4.1725 21.4756 3.62814C22.1072 3.44668 21.9268 2.5394 22.3779 2.90231C22.1975 3.08377 22.2877 3.35595 22.1975 3.62814ZM3.42887 88.4586C2.97771 88.8216 2.79724 88.1865 2.43631 88.005C3.51911 88.005 2.07537 86.2812 3.33864 87.0977C3.33864 87.3699 3.06794 87.4606 2.88747 87.5514C3.15817 87.7328 3.69958 87.8236 3.42887 88.4586ZM5.23355 88.1865C5.05308 88.0957 5.23355 86.8255 5.77495 87.5514C5.86518 88.005 5.41401 88.005 5.23355 88.1865ZM6.40658 85.6461C5.77495 85.1017 5.05308 85.5554 4.51168 85.9183C4.42144 86.3719 4.24098 87.2792 3.69958 86.5534C3.06794 84.8295 5.41401 85.9183 4.60191 84.6481C5.23355 83.8315 5.68471 85.3739 6.49682 85.3739L6.40658 85.6461ZM6.85775 83.015C6.76752 83.1057 6.67728 82.9243 6.67728 82.8335C6.76752 82.5613 7.30892 81.9262 7.57962 82.2892C7.76009 82.7428 7.21868 83.015 6.85775 83.015ZM12.0913 80.5653C11.0987 80.4746 12.0011 82.2892 10.9183 81.2912C11.0085 80.8375 11.4597 79.3859 12.0913 80.5653ZM13.896 72.3998C13.7155 73.0349 13.0839 73.3978 12.8132 73.5793C13.0839 73.2164 12.9936 72.672 13.2643 72.3091C13.3546 72.1276 13.6253 72.0369 13.896 71.9462C13.9862 72.1276 13.9862 72.2184 13.896 72.3998ZM20.2123 64.8694C20.3025 65.0509 20.5732 65.2323 20.3928 65.5045C19.7611 65.5045 19.31 66.4118 18.6783 65.7767C19.0393 65.2323 19.5807 64.2343 20.2123 64.8694ZM16.3323 68.68C16.1518 68.7707 16.0616 69.2243 15.7006 68.9522C15.8811 67.5005 15.069 68.68 15.7006 67.2283C16.4225 67.5912 16.603 67.9542 16.3323 68.68ZM17.6858 68.68C17.3248 68.2263 16.6932 68.0449 16.603 67.4098C17.0541 67.1376 17.1444 67.5005 17.776 67.2283C17.6858 67.4098 17.9565 67.4098 17.8662 67.682C17.5053 67.7727 17.0541 67.5005 17.3248 68.1356C17.5053 68.3171 18.7686 68.5893 17.6858 68.68ZM18.4076 66.3211C18.4979 66.4118 18.4979 66.5932 18.5881 66.684C18.1369 67.3191 18.0467 66.4118 17.776 66.4118C17.776 66.3211 17.776 66.3211 17.776 66.2303C17.776 65.4138 18.1369 65.7767 18.4076 66.3211ZM17.5955 64.3251C17.9565 64.9601 18.5881 63.9621 18.4076 64.9601C17.5053 64.5065 16.7834 66.3211 16.603 65.5952C17.2346 65.4138 16.603 64.3251 17.5955 64.3251ZM26.7091 51.5324C26.8896 51.1695 26.8896 51.7139 27.0701 51.7139C26.6189 51.9861 27.3408 52.4397 26.8896 52.6212C25.9873 52.6212 26.8896 51.9861 26.7091 51.5324ZM25.9873 52.7119C25.7166 53.0748 25.4459 52.5304 25.2654 52.4397C25.4459 52.1675 26.258 52.0768 25.9873 52.7119ZM25.8068 51.4417C25.8068 51.7139 25.6263 51.8046 25.4459 51.8953C25.1752 51.8046 24.8142 51.8953 24.724 51.5324C24.9045 51.1695 25.4459 51.351 25.8068 51.4417ZM24.724 53.6192C24.5435 53.8006 24.3631 53.8913 24.2728 54.0728C24.2728 53.8913 24.2728 53.7099 24.2728 53.5284C24.2728 52.8933 24.2728 52.0768 25.0849 52.7119C25.1752 53.1655 24.9045 53.4377 24.724 53.6192ZM25.6263 55.2523C25.2654 55.2523 25.4459 54.6172 25.6263 54.5264C25.8068 54.4357 25.8068 54.7079 25.9873 54.8894C26.0775 55.0708 25.8068 55.0708 25.6263 55.2523ZM26.6189 53.8913C26.5287 53.9821 26.3482 54.0728 26.258 54.1635C25.897 53.5284 24.4533 55.1615 25.0849 53.8006C25.1752 53.8006 25.1752 53.7099 25.2654 53.6192C25.7166 53.2563 26.7994 52.4397 26.7994 53.6192C26.7091 53.8006 26.6189 53.8913 26.6189 53.8913ZM26.7091 55.4337C26.4384 55.0708 26.7994 54.6172 26.7994 54.1635C27.1603 54.2543 27.0701 54.8894 27.1603 55.2523C26.9798 55.2523 27.0701 55.5244 26.7091 55.4337ZM32.6645 28.5783C32.2134 28.3061 33.0255 27.671 33.1157 28.3968C32.845 28.4876 32.9352 28.7597 32.6645 28.5783ZM34.1985 29.2134C33.9278 29.1227 33.7473 28.7597 34.1083 28.5783C34.2887 28.5783 34.5595 28.4876 34.6497 28.7597C34.6497 29.0319 34.379 29.1227 34.1985 29.2134ZM34.8302 24.0419C34.9204 24.0419 35.0106 24.1326 35.0106 24.2234C35.1009 24.4048 34.9204 24.4048 34.8302 24.4048C34.4692 24.4955 34.379 24.1326 34.8302 24.0419ZM34.7399 27.9432C34.1985 28.2154 33.8376 27.671 33.7473 27.2174C33.7473 25.9472 35.1911 27.3988 34.7399 27.9432ZM33.6571 31.663C33.6571 31.7538 33.6571 32.0259 33.4766 32.0259C33.0255 32.0259 33.2962 30.9372 33.6571 31.663ZM33.1157 23.8604C33.3864 23.5883 33.7473 23.679 33.8376 23.9512C33.7473 24.5863 32.3036 24.7677 33.1157 23.8604ZM33.1157 26.673C33.1157 26.9452 32.9352 26.9452 32.7548 27.1266C32.5743 27.2174 32.5743 26.8545 32.3938 26.7637C32.3938 26.3101 33.0255 26.4915 33.1157 26.673ZM31.8524 29.0319C32.1231 29.0319 32.2134 29.2134 32.3036 29.3948C32.3938 29.5763 32.1231 29.5763 32.0329 29.7577C31.4915 29.8485 31.5817 29.2134 31.8524 29.0319ZM32.3036 34.3849C32.7548 33.8405 33.2962 34.3849 32.9352 34.9292C32.845 35.1107 32.9352 35.3829 32.6645 35.4736C31.7622 35.2921 32.9352 34.6571 32.3036 34.3849ZM44.3949 78.66C44.034 78.3879 43.2219 79.1137 43.0414 78.2064C43.0414 77.7528 43.7633 76.9362 44.034 77.8435C43.673 78.4786 44.6656 77.7528 44.3949 78.66ZM49.3578 85.1017C49.3578 85.1925 49.2675 85.1925 49.1773 85.2832C49.0871 85.1925 49.0871 85.1925 48.9968 85.1017C48.6359 84.8295 48.2749 84.7388 48.8163 84.1944C49.1773 84.1944 49.448 84.4666 49.448 84.7388C49.3578 84.8295 49.448 85.011 49.3578 85.1017ZM48.9066 83.4686C48.6359 83.5593 48.7261 84.013 48.4554 84.013C47.8238 83.7408 48.3652 83.3779 48.6359 83.1057C49.1773 82.8335 49.1773 83.8315 49.6285 83.015C48.8164 82.5613 48.7261 82.1077 49.1773 81.3819C48.9066 82.6521 50.3503 82.1984 50.8917 82.7428C49.8992 82.5613 50.0796 84.9203 48.9066 83.4686ZM50.1699 86.8255C49.8992 86.4626 49.8089 86.1905 49.9894 85.7368C50.3503 85.8275 50.7113 86.3719 50.8015 86.7348C50.621 87.007 50.3503 86.7348 50.1699 86.8255ZM51.8843 85.4646C51.7941 85.5554 51.7038 85.6461 51.7038 85.7368C51.5234 85.8275 51.2527 85.8275 51.0722 86.009C50.8015 85.8275 50.621 85.5554 50.5308 85.1925C50.3503 84.6481 50.2601 84.1037 50.1699 83.8315C51.0722 83.8315 50.621 86.009 51.7941 84.8295C52.0648 85.1017 51.9745 85.2832 51.8843 85.4646ZM52.4257 86.4626C52.9671 86.3719 53.7792 85.1924 53.7792 86.3719C53.328 86.9163 52.7866 86.4626 52.4257 86.4626Z" fill="#F09CAF"/>
<path d="M39.0711 3.71979C37.4469 3.71979 36.0934 5.08071 36.0934 6.71381C36.0934 8.34691 37.4469 9.70782 39.0711 9.70782C40.6953 9.70782 42.0488 8.34691 42.0488 6.71381C42.139 5.08071 40.7855 3.71979 39.0711 3.71979ZM39.0711 9.34491C37.6274 9.34491 36.4543 8.16545 36.4543 6.71381C36.4543 5.26216 37.6274 4.0827 39.0711 4.0827C40.5148 4.0827 41.6879 5.26216 41.6879 6.71381C41.6879 8.16545 40.5148 9.34491 39.0711 9.34491Z" fill="#F09CAF"/>
<path d="M40.244 6.07985C40.244 5.80767 40.1538 5.53549 39.8831 5.35403C39.7026 5.17258 39.4319 5.17258 39.071 5.17258H38.1686V8.34805H38.8003V6.98713H38.9807L39.7026 8.34805H40.4245L39.5221 6.98713C39.8831 6.80568 40.244 6.53349 40.244 6.07985ZM38.8003 5.71694H38.9807C39.1612 5.71694 39.3417 5.71694 39.4319 5.80767C39.5221 5.8984 39.6124 5.98913 39.6124 6.17058C39.6124 6.35204 39.6124 6.44277 39.4319 6.53349C39.3417 6.62422 39.1612 6.62422 38.9807 6.62422H38.8003V5.71694Z" fill="#F09CAF"/>
<path d="M58.1103 35.1134C58.9224 34.5691 59.4638 33.5711 59.4638 32.4823C59.4638 31.3029 59.0126 30.3956 58.02 29.7605C57.2079 29.2161 56.2154 29.1254 54.9521 29.1254H51.433V41.918H55.674C57.2079 41.918 58.1103 41.6458 58.9224 41.1015C59.9149 40.3756 60.3661 39.3776 60.3661 38.1982C60.2759 36.7465 59.554 35.6578 58.1103 35.1134ZM56.4861 34.0247C56.1251 34.2969 55.5837 34.2969 54.8619 34.2969H53.7791V31.0307H55.0423C55.7642 31.0307 56.2154 31.1214 56.5763 31.3029C57.0275 31.575 57.2079 31.938 57.2079 32.5731C57.2079 33.4803 56.847 33.8432 56.4861 34.0247ZM53.6888 36.2929H55.2228C55.9447 36.2929 56.6665 36.2929 57.2079 36.6558C57.7493 37.0187 57.9298 37.4724 57.9298 38.1074C57.9298 38.7425 57.7493 39.1962 57.2079 39.5591C56.6665 39.922 56.0349 39.922 55.2228 39.922H53.6888V36.2929Z" fill="#525761"/>
<path d="M64.4265 37.4689C64.4265 36.2894 64.7875 35.7451 64.8777 35.5636C64.9679 35.3822 65.4191 35.0192 66.0507 35.0192C66.3214 35.0192 66.5921 35.11 66.8628 35.2007H67.314L67.4945 33.114L67.314 33.0232C67.314 33.0232 66.9531 32.8418 66.3214 32.8418C65.5996 32.8418 64.9679 33.114 64.5168 33.6583V33.0232H62.2609V42.0053H64.5168V37.4689H64.4265Z" fill="#525761"/>
<path d="M72.5478 42.0977C74.0817 42.0977 75.4352 41.6441 76.4278 40.7368L76.6083 40.5553L75.6157 39.1037L75.2548 39.2851C74.9841 39.4666 74.0817 40.1017 72.7282 40.1017C71.4649 40.1017 70.5626 39.2851 70.3821 38.0149H76.6985V37.7428C76.6985 37.7428 76.7887 37.2891 76.7887 36.9262C76.7887 34.4766 74.9841 32.662 72.5478 32.662C69.931 32.662 68.0361 34.5673 68.0361 37.2891C68.0361 40.1924 69.8407 42.0977 72.5478 42.0977ZM72.5478 34.5673C73.9013 34.5673 74.4427 35.656 74.6231 36.3818H70.3821C70.5626 35.5653 71.1942 34.5673 72.5478 34.5673Z" fill="#525761"/>
<path d="M83.2858 41.9146H85.5416V36.7431C85.5416 35.3822 85.2709 34.5656 84.549 33.8398C83.8272 33.114 82.9248 32.8418 81.5713 32.8418C80.0374 32.8418 78.8643 33.3861 78.3229 33.7491L78.0522 33.8398L78.7741 35.5636L79.0448 35.3822C79.135 35.2914 80.1276 34.7471 81.3909 34.7471C81.9323 34.7471 83.1955 34.9285 83.1955 36.3802V36.2894L81.2104 36.3802C78.9546 36.4709 77.6913 37.5596 77.6913 39.1927C77.6913 40.8258 79.0448 42.096 80.8495 42.096C81.9323 42.096 82.7444 41.6424 83.1955 41.2795L83.2858 41.9146ZM81.4811 40.2815C80.5788 40.2815 80.0374 39.8278 80.0374 39.102C80.0374 38.3762 80.5788 38.0133 81.6616 37.9225L83.2858 37.8318V39.1927C83.0151 39.6464 82.4737 40.2815 81.4811 40.2815Z" fill="#525761"/>
<path d="M92.9407 41.2821C93.5724 40.7378 93.9333 40.0119 93.9333 39.1047C93.9333 38.3788 93.6626 37.8345 93.2114 37.3808C92.8505 37.0179 92.3993 36.8365 92.1286 36.7457C91.8579 36.655 91.5872 36.5643 91.2263 36.3828L91.0458 36.2921C90.1435 36.0199 89.6021 35.7477 89.6021 35.2941C89.6021 34.659 90.1435 34.5683 90.5947 34.5683C91.3165 34.5683 92.0384 34.9312 92.4896 35.3848L92.7603 35.657L93.8431 34.1146L93.6626 33.9332C92.9407 33.1166 91.9482 32.7537 90.5947 32.7537C88.79 32.7537 87.5267 33.8425 87.5267 35.4756C87.5267 36.4736 88.0681 37.2901 88.9704 37.7438C89.2412 37.9252 89.5119 38.0159 89.7826 38.1067L90.1435 38.1974C90.2337 38.1974 90.324 38.2881 90.4142 38.2881C91.1361 38.4696 91.8579 38.7418 91.8579 39.2861C91.8579 40.1027 91.0458 40.1934 90.5947 40.1934C89.963 40.1934 88.9705 39.8305 88.3388 39.1047L88.0681 38.8325L86.8951 40.2841L87.0755 40.4656C87.8876 41.4636 89.1509 42.0987 90.5947 42.0987C91.4068 42.0987 92.2189 41.8265 92.9407 41.2821Z" fill="#525761"/>
<path d="M99.7983 39.9185C99.7983 39.9185 99.4374 40.1 99.0765 40.1C98.7155 40.1 98.535 40.0092 98.4448 39.8278C98.2643 39.5556 98.2644 39.102 98.2644 38.4669V35.0192H100.249V33.0232H98.2644V30.4828H96.0085V33.0232H94.7452V35.0192H96.0085V38.5576C96.0085 39.9185 96.0987 40.6443 96.4597 41.1887C96.9108 41.8238 97.5425 42.1867 98.4448 42.1867C99.3472 42.1867 100.069 41.9145 100.069 41.9145L100.249 41.8238L100.069 39.8278L99.7983 39.9185Z" fill="#525761"/>
<path d="M115.408 38.5581C114.596 39.4654 113.423 39.919 111.98 39.919C109.543 39.919 107.739 38.1045 107.739 35.4734C107.739 32.8423 109.453 31.0277 111.98 31.0277C113.604 31.0277 114.867 31.8443 115.228 32.3886L115.499 32.7515L116.491 30.7555L116.311 30.5741C115.679 29.939 114.235 28.8503 111.799 28.8503C108.009 28.8503 105.302 31.5721 105.302 35.3827C105.302 39.2839 108.009 41.9151 111.799 41.9151C114.235 41.9151 115.679 40.917 116.401 40.0098L116.581 39.8283L115.499 38.0138L115.408 38.5581Z" fill="#525761"/>
<path d="M123.349 41.9146H125.605V36.7431C125.605 35.3822 125.334 34.5656 124.613 33.8398C123.891 33.114 122.988 32.8418 121.635 32.8418C120.101 32.8418 118.928 33.3861 118.386 33.7491L118.116 33.8398L118.838 35.5636L119.108 35.3822C119.199 35.2914 120.191 34.7471 121.454 34.7471C121.996 34.7471 123.259 34.9285 123.259 36.3802V36.2894L121.274 36.3802C119.018 36.4709 117.755 37.5596 117.755 39.1927C117.755 40.8258 119.108 42.096 120.913 42.096C121.996 42.096 122.808 41.6424 123.259 41.2795L123.349 41.9146ZM121.454 40.2815C120.552 40.2815 120.011 39.8278 120.011 39.102C120.011 38.3762 120.552 38.0133 121.635 37.9225L123.259 37.8318V39.1927C123.079 39.6464 122.447 40.2815 121.454 40.2815Z" fill="#525761"/>
<path d="M133.275 41.9172H135.531V36.655C135.531 34.0239 134.448 32.7537 132.282 32.7537C131.38 32.7537 130.568 33.1166 130.026 33.661V32.9352H127.771V41.9172H130.026V37.3808C130.026 36.2014 130.387 34.7497 131.831 34.7497C132.914 34.7497 133.275 35.2941 133.275 36.9272V41.9172Z" fill="#525761"/>
<path d="M144.283 39.1037C144.283 39.1037 143.471 40.1017 142.028 40.1017C140.584 40.1017 139.591 39.013 139.591 37.3798C139.591 35.8375 140.584 34.7487 142.028 34.7487C143.381 34.7487 144.013 35.3838 144.283 35.656L144.554 35.9282L145.456 34.1136L145.366 33.9322C145.186 33.7507 144.193 32.662 141.937 32.662C139.772 32.662 137.335 34.2951 137.335 37.2891C137.335 39.9202 139.23 41.9162 141.847 41.9162C144.103 41.9162 145.005 40.9182 145.366 40.646L145.186 40.3739L145.366 40.5553L145.547 40.3739L144.644 38.5593L144.283 39.1037Z" fill="#525761"/>
<path d="M154.48 40.7368L154.66 40.5553L153.668 39.1037L153.307 39.2851C153.036 39.4666 152.134 40.1017 150.78 40.1017C149.517 40.1017 148.615 39.2851 148.434 38.0149H154.75V37.7428C154.75 37.7428 154.841 37.2891 154.841 36.9262C154.841 34.4766 153.036 32.662 150.6 32.662C147.983 32.662 146.088 34.5673 146.088 37.2891C146.088 40.1017 147.893 42.007 150.6 42.007C152.224 42.0977 153.577 41.6441 154.48 40.7368ZM150.6 34.5673C151.953 34.5673 152.495 35.656 152.675 36.3818H148.524C148.705 35.5653 149.336 34.5673 150.6 34.5673Z" fill="#525761"/>
<path d="M161.338 35.1126H161.789L161.969 33.0259L161.789 32.9352C161.789 32.9352 161.428 32.7537 160.796 32.7537C160.074 32.7537 159.443 33.0259 158.991 33.5703V32.9352H156.736V41.9172H158.991V37.4716C158.991 36.2921 159.352 35.7477 159.443 35.5663C159.533 35.3848 159.984 35.0219 160.616 35.0219C160.796 34.9312 161.067 34.9312 161.338 35.1126Z" fill="#525761"/>
<path d="M51.4331 59.8803H53.6889V54.6181H58.4713V52.622H53.6889V49.1744H58.742V47.0876H51.4331V59.8803Z" fill="#525761"/>
<path d="M64.4268 50.7156C61.7198 50.7156 59.7347 52.7116 59.7347 55.3427C59.7347 58.0645 61.7198 59.9698 64.4268 59.9698C67.1338 59.9698 69.119 57.9738 69.119 55.3427C69.119 52.7116 67.1338 50.7156 64.4268 50.7156ZM64.4268 58.0645C62.9831 58.0645 61.9905 56.9758 61.9905 55.4334C61.9905 53.8911 62.9831 52.8023 64.4268 52.8023C65.8706 52.8023 66.8631 53.8911 66.8631 55.4334C66.7729 56.9758 65.7803 58.0645 64.4268 58.0645Z" fill="#525761"/>
<path d="M76.0669 55.7068C76.0669 56.2512 75.9766 58.0657 74.2622 58.0657C73.2696 58.0657 72.8185 57.5214 72.8185 56.1605V50.8982H70.5626V56.2512C70.5626 57.5214 70.7431 58.4287 71.2845 59.0637C71.8259 59.7896 72.7282 60.1525 73.811 60.1525C74.7134 60.1525 75.5255 59.8803 76.0669 59.3359V59.971H78.3227V50.989H76.0669V55.7068Z" fill="#525761"/>
<path d="M85.2706 50.7156C84.3683 50.7156 83.5562 51.0785 83.0148 51.6229V50.897H80.7589V59.8791H83.0148V55.3427C83.0148 54.1632 83.3757 52.7116 84.8194 52.7116C85.9022 52.7116 86.2632 53.256 86.2632 54.8891V59.8791H88.519V54.6169C88.6092 51.9858 87.5264 50.7156 85.2706 50.7156Z" fill="#525761"/>
<path d="M97.0913 51.7148C96.3694 51.0797 95.4671 50.7168 94.4745 50.7168C91.948 50.7168 90.1433 52.622 90.1433 55.3439C90.1433 58.0657 91.948 60.0617 94.4745 60.0617C95.5573 60.0617 96.4597 59.6988 97.1815 58.973V59.8803H99.3471V47.0876H97.0913V51.7148ZM97.1815 55.3439C97.1815 56.977 96.2792 57.975 94.8355 57.975C93.3917 57.975 92.4894 56.8862 92.4894 55.3439C92.4894 53.7108 93.3917 52.7128 94.8355 52.7128C96.189 52.7128 97.1815 53.8015 97.1815 55.3439Z" fill="#525761"/>
<path d="M105.212 50.7156C103.678 50.7156 102.505 51.26 101.964 51.6229L101.693 51.7136L102.415 53.4374L102.686 53.256C102.776 53.1652 103.768 52.6209 105.032 52.6209C105.573 52.6209 106.836 52.8023 106.836 54.254V54.3447L104.851 54.4354C102.595 54.5262 101.332 55.6149 101.332 57.248C101.332 58.8811 102.686 60.1513 104.49 60.1513C105.573 60.1513 106.385 59.6976 106.836 59.3347V59.9698H109.092V54.7983C109.092 53.4374 108.821 52.6209 108.1 51.8951C107.468 51.0785 106.475 50.7156 105.212 50.7156ZM106.836 55.8871V57.248C106.656 57.5202 106.024 58.246 105.032 58.246C104.129 58.246 103.588 57.7924 103.588 57.0665C103.588 56.3407 104.129 55.9778 105.212 55.8871H106.836Z" fill="#525761"/>
<path d="M115.318 57.8843C115.318 57.8843 114.958 58.0657 114.597 58.0657C114.236 58.0657 114.055 57.975 113.965 57.7935C113.784 57.5214 113.784 57.0677 113.784 56.4326V52.985H115.77V50.989H113.784V48.4486H111.529V50.989H110.265V52.985H111.529V56.5233C111.529 57.8843 111.619 58.6101 111.98 59.1545C112.431 59.7895 113.063 60.1525 113.965 60.1525C114.867 60.1525 115.589 59.8803 115.589 59.8803L115.77 59.7895L115.589 57.7935L115.318 57.8843Z" fill="#525761"/>
<path d="M119.108 47.0876C118.296 47.0876 117.665 47.632 117.665 48.4486C117.665 49.2651 118.296 49.8095 119.108 49.8095C119.92 49.8095 120.462 49.2651 120.462 48.4486C120.552 47.7227 119.92 47.0876 119.108 47.0876Z" fill="#525761"/>
<path d="M120.191 50.8982H117.935V59.8803H120.191V50.8982Z" fill="#525761"/>
<path d="M126.778 50.7156C124.071 50.7156 122.086 52.7116 122.086 55.3427C122.086 58.0645 124.071 59.9698 126.778 59.9698C129.485 59.9698 131.47 57.9738 131.47 55.3427C131.47 52.7116 129.485 50.7156 126.778 50.7156ZM126.778 58.0645C125.334 58.0645 124.342 56.9758 124.342 55.4334C124.342 53.8911 125.334 52.8023 126.778 52.8023C128.222 52.8023 129.214 53.8911 129.214 55.4334C129.214 56.9758 128.222 58.0645 126.778 58.0645Z" fill="#525761"/>
<path d="M137.787 50.7156C136.884 50.7156 136.072 51.0785 135.531 51.6229V50.897H133.275V59.8791H135.531V55.3427C135.531 54.1632 135.892 52.7116 137.336 52.7116C138.418 52.7116 138.779 53.256 138.779 54.8891V59.8791H141.035V54.6169C141.125 51.9858 140.043 50.7156 137.787 50.7156Z" fill="#525761"/>
<path d="M156.465 53.8922C156.465 54.7088 156.465 55.4346 156.465 56.0697L150.058 47.1784H147.803V59.8803H150.058V53.0757C150.058 52.2591 150.058 51.4426 150.058 50.8075L156.555 59.8803H158.631V47.0876H156.375V53.8922H156.465Z" fill="#525761"/>
<path d="M163.413 57.7935L169.91 48.7207V47.0876H160.616V49.1744H166.752L160.435 58.1564V59.8803H170V57.7935H163.413Z" fill="#525761"/>
</g>
<defs>
<clipPath id="clip0_266_1412">
<rect width="170" height="91" fill="white"/>
</clipPath>
</defs>
</svg>
